<svg xmlns="http://www.w3.org/2000/svg" width="14" height="20" viewBox="0 0 14 20">
    <g fill-rule="evenodd" opacity=".854">
        <path d="M4.268 7.395c0 .916-.003 1.833.002 2.75 0 .214.014.43.038.643.133 1.138 1.003 2.07 2.145 2.305 1.12.23 2.305-.29 2.874-1.252.291-.492.406-1.026.407-1.59.001-1.84.001-3.68-.001-5.52 0-.208-.01-.416-.03-.623A2.71 2.71 0 0 0 6.29 1.732c-1.227.333-2.01 1.376-2.02 2.706-.008.986-.002 1.972-.002 2.957zM2.649 7.38c0-1.077-.031-2.156.007-3.233C2.73 2.066 4.35.312 6.405.04c2.587-.343 4.894 1.603 4.943 4.224.04 2.086.032 4.173.001 6.26-.028 1.926-1.311 3.555-3.15 4.087-2.59.75-5.26-1.03-5.527-3.721-.081-.817-.03-1.647-.039-2.47-.003-.347 0-.693 0-1.04h.016z"/>
        <path d="M6.131 18.406c0-.43-.005-.824.003-1.218.003-.155-.102-.158-.213-.174a6.79 6.79 0 0 1-2.07-.625C1.99 15.463.754 14.046.243 12.104c-.15-.571-.198-1.174-.225-1.765-.036-.81-.006-1.622-.01-2.433-.002-.305.109-.552.37-.731.469-.32 1.13-.091 1.27.443.03.114.036.235.036.354.006.915-.008 1.83.012 2.746.046 2.127 1.694 4.084 3.872 4.603 1.893.452 3.59.076 5.032-1.178 1.04-.904 1.587-2.06 1.647-3.396.043-.966.01-1.935.018-2.902.003-.343.176-.598.501-.746.306-.14.613-.102.848.122.14.132.29.333.293.505.013 1.308.15 2.625-.093 3.92-.359 1.908-1.43 3.386-3.146 4.435a6.94 6.94 0 0 1-2.641.934c-.069.01-.136.026-.206.04v1.35h.262c.556.001 1.112-.006 1.667.004.474.008.808.316.835.745.027.417-.258.746-.72.825-.083.014-.17.02-.255.02H4.326c-.346 0-.657-.08-.845-.384-.336-.542.034-1.186.697-1.205.556-.015 1.112-.004 1.668-.004h.285z"/>
    </g>
</svg>
