<svg xmlns="http://www.w3.org/2000/svg" width="14" height="19" viewBox="0 0 14 19">
    <path fill-rule="evenodd" d="M12.31 17.427H1.697c-.003-1.267-.017-2.447.018-3.24.06-1.353.609-2.524 1.652-3.439 1.447-1.27 3.148-1.651 5.047-1.194 2.184.526 3.838 2.508 3.884 4.663.016.771.01 2.862.01 4.074M6.202 1.695c1.67-.434 3.338.674 3.496 2.327.02.202.032.497.032.766-.001.552-.118 1.075-.417 1.556-.583.941-1.796 1.45-2.943 1.226-1.17-.23-2.062-1.142-2.197-2.256-.025-.21-.048-.004-.04-.97.01-1.301.813-2.322 2.07-2.649zm7.554 11.118c-.513-1.967-1.752-3.403-3.619-4.34a6.648 6.648 0 0 0-.414-.189c1.01-.767 1.642-1.93 1.661-3.23.004-.24.003-.7 0-.88C11.33 1.607 8.97-.298 6.32.037c-2.103.267-3.764 1.984-3.84 4.02a7.63 7.63 0 0 0 .017 1.354c.126 1.212.773 2.234 1.694 2.915-.307.13-.604.28-.891.458C1.579 9.847.504 11.344.144 13.275c-.245 1.313-.107 3.683-.093 5.007.002.174.154.378.294.512.138.133.3.199.473.204L13.182 19v-.013a.831.831 0 0 0 .438-.146c.263-.182.374-.432.372-.74-.004-.822.027-2.681-.01-3.501-.028-.599-.075-1.21-.226-1.787z" opacity=".854"/>
</svg>
